<mxfile host="app.diagrams.net" agent="Mozilla/5.0 (X11; Ubuntu; Linux x86_64; rv:132.0) Gecko/20100101 Firefox/132.0" version="24.8.3">
  <diagram name="Page-1" id="WckjEK_yi5R_WM41BsHw">
    <mxGraphModel dx="1364" dy="758" grid="1" gridSize="10" guides="1" tooltips="1" connect="1" arrows="1" fold="1" page="1" pageScale="1" pageWidth="850" pageHeight="1100" math="0" shadow="0">
      <root>
        <mxCell id="0" />
        <mxCell id="1" parent="0" />
        <mxCell id="NjENaD3Z_dto9O1xo7_0-10" value="" style="edgeStyle=orthogonalEdgeStyle;rounded=0;orthogonalLoop=1;jettySize=auto;html=1;" edge="1" parent="1" source="NjENaD3Z_dto9O1xo7_0-1" target="NjENaD3Z_dto9O1xo7_0-5">
          <mxGeometry relative="1" as="geometry" />
        </mxCell>
        <mxCell id="NjENaD3Z_dto9O1xo7_0-1" value="m[0]" style="rounded=0;whiteSpace=wrap;html=1;fillColor=#ffe6cc;strokeColor=#d79b00;" vertex="1" parent="1">
          <mxGeometry x="200" y="300" width="120" height="60" as="geometry" />
        </mxCell>
        <mxCell id="NjENaD3Z_dto9O1xo7_0-11" value="" style="edgeStyle=orthogonalEdgeStyle;rounded=0;orthogonalLoop=1;jettySize=auto;html=1;" edge="1" parent="1" source="NjENaD3Z_dto9O1xo7_0-2" target="NjENaD3Z_dto9O1xo7_0-6">
          <mxGeometry relative="1" as="geometry" />
        </mxCell>
        <mxCell id="NjENaD3Z_dto9O1xo7_0-2" value="m[1]" style="rounded=0;whiteSpace=wrap;html=1;fillColor=#ffe6cc;strokeColor=#d79b00;" vertex="1" parent="1">
          <mxGeometry x="320" y="300" width="120" height="60" as="geometry" />
        </mxCell>
        <mxCell id="NjENaD3Z_dto9O1xo7_0-12" value="" style="edgeStyle=orthogonalEdgeStyle;rounded=0;orthogonalLoop=1;jettySize=auto;html=1;" edge="1" parent="1" source="NjENaD3Z_dto9O1xo7_0-3" target="NjENaD3Z_dto9O1xo7_0-7">
          <mxGeometry relative="1" as="geometry" />
        </mxCell>
        <mxCell id="NjENaD3Z_dto9O1xo7_0-3" value="m[2]" style="rounded=0;whiteSpace=wrap;html=1;fillColor=#ffe6cc;strokeColor=#d79b00;" vertex="1" parent="1">
          <mxGeometry x="440" y="300" width="120" height="60" as="geometry" />
        </mxCell>
        <mxCell id="NjENaD3Z_dto9O1xo7_0-13" value="" style="edgeStyle=orthogonalEdgeStyle;rounded=0;orthogonalLoop=1;jettySize=auto;html=1;" edge="1" parent="1" source="NjENaD3Z_dto9O1xo7_0-4" target="NjENaD3Z_dto9O1xo7_0-8">
          <mxGeometry relative="1" as="geometry" />
        </mxCell>
        <mxCell id="NjENaD3Z_dto9O1xo7_0-4" value="m[3]" style="rounded=0;whiteSpace=wrap;html=1;fillColor=#ffe6cc;strokeColor=#d79b00;" vertex="1" parent="1">
          <mxGeometry x="560" y="300" width="120" height="60" as="geometry" />
        </mxCell>
        <mxCell id="NjENaD3Z_dto9O1xo7_0-16" value="" style="edgeStyle=orthogonalEdgeStyle;rounded=0;orthogonalLoop=1;jettySize=auto;html=1;" edge="1" parent="1" source="NjENaD3Z_dto9O1xo7_0-5" target="NjENaD3Z_dto9O1xo7_0-6">
          <mxGeometry relative="1" as="geometry" />
        </mxCell>
        <mxCell id="NjENaD3Z_dto9O1xo7_0-5" value="F(k, .)" style="rounded=0;whiteSpace=wrap;html=1;fillColor=#e1d5e7;strokeColor=#9673a6;" vertex="1" parent="1">
          <mxGeometry x="220" y="450" width="80" height="60" as="geometry" />
        </mxCell>
        <mxCell id="NjENaD3Z_dto9O1xo7_0-17" value="" style="edgeStyle=orthogonalEdgeStyle;rounded=0;orthogonalLoop=1;jettySize=auto;html=1;" edge="1" parent="1" source="NjENaD3Z_dto9O1xo7_0-6" target="NjENaD3Z_dto9O1xo7_0-7">
          <mxGeometry relative="1" as="geometry" />
        </mxCell>
        <mxCell id="NjENaD3Z_dto9O1xo7_0-6" value="F(k, .)" style="rounded=0;whiteSpace=wrap;html=1;fillColor=#e1d5e7;strokeColor=#9673a6;" vertex="1" parent="1">
          <mxGeometry x="340" y="450" width="80" height="60" as="geometry" />
        </mxCell>
        <mxCell id="NjENaD3Z_dto9O1xo7_0-18" value="" style="edgeStyle=orthogonalEdgeStyle;rounded=0;orthogonalLoop=1;jettySize=auto;html=1;" edge="1" parent="1" source="NjENaD3Z_dto9O1xo7_0-7" target="NjENaD3Z_dto9O1xo7_0-8">
          <mxGeometry relative="1" as="geometry" />
        </mxCell>
        <mxCell id="NjENaD3Z_dto9O1xo7_0-7" value="F(k, .)" style="rounded=0;whiteSpace=wrap;html=1;fillColor=#e1d5e7;strokeColor=#9673a6;" vertex="1" parent="1">
          <mxGeometry x="460" y="450" width="80" height="60" as="geometry" />
        </mxCell>
        <mxCell id="NjENaD3Z_dto9O1xo7_0-19" value="" style="edgeStyle=orthogonalEdgeStyle;rounded=0;orthogonalLoop=1;jettySize=auto;html=1;" edge="1" parent="1" source="NjENaD3Z_dto9O1xo7_0-8" target="NjENaD3Z_dto9O1xo7_0-9">
          <mxGeometry relative="1" as="geometry" />
        </mxCell>
        <mxCell id="NjENaD3Z_dto9O1xo7_0-8" value="F(k, .)" style="rounded=0;whiteSpace=wrap;html=1;fillColor=#e1d5e7;strokeColor=#9673a6;" vertex="1" parent="1">
          <mxGeometry x="580" y="450" width="80" height="60" as="geometry" />
        </mxCell>
        <mxCell id="NjENaD3Z_dto9O1xo7_0-21" value="" style="edgeStyle=orthogonalEdgeStyle;rounded=0;orthogonalLoop=1;jettySize=auto;html=1;" edge="1" parent="1" source="NjENaD3Z_dto9O1xo7_0-9" target="NjENaD3Z_dto9O1xo7_0-20">
          <mxGeometry relative="1" as="geometry" />
        </mxCell>
        <mxCell id="NjENaD3Z_dto9O1xo7_0-9" value="t || pad" style="rounded=0;whiteSpace=wrap;html=1;fillColor=#d5e8d4;strokeColor=#82b366;" vertex="1" parent="1">
          <mxGeometry x="720" y="450" width="120" height="60" as="geometry" />
        </mxCell>
        <mxCell id="NjENaD3Z_dto9O1xo7_0-15" value="" style="edgeStyle=orthogonalEdgeStyle;rounded=0;orthogonalLoop=1;jettySize=auto;html=1;" edge="1" parent="1" source="NjENaD3Z_dto9O1xo7_0-14" target="NjENaD3Z_dto9O1xo7_0-5">
          <mxGeometry relative="1" as="geometry" />
        </mxCell>
        <mxCell id="NjENaD3Z_dto9O1xo7_0-14" value="k" style="text;html=1;align=center;verticalAlign=middle;whiteSpace=wrap;rounded=0;" vertex="1" parent="1">
          <mxGeometry x="90" y="465" width="60" height="30" as="geometry" />
        </mxCell>
        <mxCell id="NjENaD3Z_dto9O1xo7_0-26" value="" style="edgeStyle=orthogonalEdgeStyle;rounded=0;orthogonalLoop=1;jettySize=auto;html=1;" edge="1" parent="1" source="NjENaD3Z_dto9O1xo7_0-20" target="NjENaD3Z_dto9O1xo7_0-25">
          <mxGeometry relative="1" as="geometry" />
        </mxCell>
        <mxCell id="NjENaD3Z_dto9O1xo7_0-20" value="F(k1, .)" style="rounded=0;whiteSpace=wrap;html=1;fillColor=#dae8fc;strokeColor=#6c8ebf;" vertex="1" parent="1">
          <mxGeometry x="740" y="570" width="80" height="60" as="geometry" />
        </mxCell>
        <mxCell id="NjENaD3Z_dto9O1xo7_0-23" value="" style="edgeStyle=orthogonalEdgeStyle;rounded=0;orthogonalLoop=1;jettySize=auto;html=1;" edge="1" parent="1" source="NjENaD3Z_dto9O1xo7_0-22" target="NjENaD3Z_dto9O1xo7_0-20">
          <mxGeometry relative="1" as="geometry" />
        </mxCell>
        <mxCell id="NjENaD3Z_dto9O1xo7_0-22" value="k1" style="text;html=1;align=center;verticalAlign=middle;whiteSpace=wrap;rounded=0;" vertex="1" parent="1">
          <mxGeometry x="630" y="585" width="60" height="30" as="geometry" />
        </mxCell>
        <mxCell id="NjENaD3Z_dto9O1xo7_0-25" value="TAG" style="rounded=0;whiteSpace=wrap;html=1;dashed=1;fillColor=#f8cecc;strokeColor=#b85450;" vertex="1" parent="1">
          <mxGeometry x="740" y="680" width="80" height="60" as="geometry" />
        </mxCell>
      </root>
    </mxGraphModel>
  </diagram>
</mxfile>
